<svg xmlns="http://www.w3.org/2000/svg" width="1200" height="360" viewBox="0 0 1200 360">
<defs>
 <linearGradient id="g" x1="0" x2="1"><stop stop-color="#081018"/><stop offset=".58" stop-color="#111d27"/><stop offset="1" stop-color="#251016"/></linearGradient>
 <linearGradient id="r" x1="0" x2="1"><stop stop-color="#e11b22"/><stop offset="1" stop-color="#a80f15"/></linearGradient>
 <filter id="s"><feDropShadow dx="0" dy="14" stdDeviation="18" flood-opacity=".25"/></filter>
</defs>
<rect width="1200" height="360" rx="28" fill="url(#g)"/>
<path d="M0 290 C260 220 360 365 640 285 C860 225 1010 300 1200 205 V360 H0Z" fill="#e11b22" opacity=".10"/>
<path d="M0 320 C280 260 470 365 730 305 C950 255 1060 290 1200 245 V360 H0Z" fill="#e11b22" opacity=".12"/>
<circle cx="901" cy="139" r="18" fill="white" opacity="0.025"/><circle cx="992" cy="206" r="29" fill="white" opacity="0.037000000000000005"/><circle cx="1083" cy="53" r="40" fill="white" opacity="0.049"/><circle cx="814" cy="120" r="51" fill="white" opacity="0.061000000000000006"/><circle cx="905" cy="187" r="62" fill="white" opacity="0.07300000000000001"/>
<rect x="774" y="42" width="360" height="276" rx="34" fill="#ffffff" opacity=".045" stroke="#ffffff" stroke-opacity=".09"/>
<g transform="translate(789,48) scale(.82)" filter="url(#s)"><rect fill="none" stroke="white" stroke-width="5" stroke-linecap="round" stroke-linejoin="round" x="70" y="65" width="220" height="150" rx="18"/><path fill="none" stroke="white" stroke-width="5" stroke-linecap="round" stroke-linejoin="round" d="M70 105h220M115 45v40M245 45v40M110 140h35M170 140h35M230 140h25M110 175h35M170 175h35"/></g>
<rect x="70" y="76" width="72" height="7" rx="4" fill="url(#r)"/>
<text x="70" y="145" fill="white" font-family="Arial,Tahoma,sans-serif" font-size="42" font-weight="700">التقويم التدريبي</text>
<text x="70" y="188" fill="#ff3037" font-family="Arial,sans-serif" font-size="18" font-weight="700" letter-spacing="2">LEARNING CALENDAR</text>
<text x="70" y="244" fill="#cbd3d9" font-family="Arial,Tahoma,sans-serif" font-size="17">Bahra Electric • Employee Development Platform</text>
</svg>